<mxfile host="Electron" modified="2023-12-12T08:32:09.113Z" agent="Mozilla/5.0 (Windows NT 10.0; Win64; x64) AppleWebKit/537.36 (KHTML, like Gecko) draw.io/22.1.2 Chrome/114.0.5735.289 Electron/25.9.4 Safari/537.36" etag="LjlTiiQ37aN6KEGl6ptp" version="22.1.2" type="device">
  <diagram name="Page-1" id="o1WO20un-OOi3odAj9UL">
    <mxGraphModel dx="5845" dy="4130" grid="1" gridSize="10" guides="1" tooltips="1" connect="1" arrows="1" fold="1" page="1" pageScale="1" pageWidth="4681" pageHeight="3300" math="0" shadow="0">
      <root>
        <mxCell id="0" />
        <mxCell id="1" parent="0" />
        <mxCell id="7uccOjwFSfvhtbrGH7Pw-1" value="READ UNCOMMITED&lt;br&gt;READ COMMITED&lt;br&gt;REPEABLE READ&lt;br&gt;SYNC&lt;br&gt;" style="text;html=1;align=center;verticalAlign=middle;resizable=0;points=[];autosize=1;strokeColor=none;fillColor=none;fontSize=20;fontFamily=Architects Daughter;" vertex="1" parent="1">
          <mxGeometry x="-45" y="-2" width="210" height="110" as="geometry" />
        </mxCell>
        <mxCell id="7uccOjwFSfvhtbrGH7Pw-4" value="" style="edgeStyle=orthogonalEdgeStyle;rounded=0;sketch=1;hachureGap=4;jiggle=2;curveFitting=1;orthogonalLoop=1;jettySize=auto;html=1;fontFamily=Architects Daughter;fontSource=https%3A%2F%2Ffonts.googleapis.com%2Fcss%3Ffamily%3DArchitects%2BDaughter;fontSize=16;" edge="1" parent="1" source="7uccOjwFSfvhtbrGH7Pw-2" target="7uccOjwFSfvhtbrGH7Pw-3">
          <mxGeometry relative="1" as="geometry" />
        </mxCell>
        <mxCell id="7uccOjwFSfvhtbrGH7Pw-2" value="C&lt;br&gt;D" style="rounded=0;whiteSpace=wrap;html=1;sketch=1;hachureGap=4;jiggle=2;curveFitting=1;fontFamily=Architects Daughter;fontSource=https%3A%2F%2Ffonts.googleapis.com%2Fcss%3Ffamily%3DArchitects%2BDaughter;fontSize=20;" vertex="1" parent="1">
          <mxGeometry x="165" y="180" width="120" height="130" as="geometry" />
        </mxCell>
        <mxCell id="7uccOjwFSfvhtbrGH7Pw-7" value="" style="edgeStyle=orthogonalEdgeStyle;rounded=0;sketch=1;hachureGap=4;jiggle=2;curveFitting=1;orthogonalLoop=1;jettySize=auto;html=1;fontFamily=Architects Daughter;fontSource=https%3A%2F%2Ffonts.googleapis.com%2Fcss%3Ffamily%3DArchitects%2BDaughter;fontSize=16;" edge="1" parent="1" source="7uccOjwFSfvhtbrGH7Pw-3" target="7uccOjwFSfvhtbrGH7Pw-6">
          <mxGeometry relative="1" as="geometry" />
        </mxCell>
        <mxCell id="7uccOjwFSfvhtbrGH7Pw-3" value="DB&lt;br&gt;A&lt;br&gt;B&lt;br&gt;C&lt;br&gt;D" style="rounded=0;whiteSpace=wrap;html=1;sketch=1;hachureGap=4;jiggle=2;curveFitting=1;fontFamily=Architects Daughter;fontSource=https%3A%2F%2Ffonts.googleapis.com%2Fcss%3Ffamily%3DArchitects%2BDaughter;fontSize=20;" vertex="1" parent="1">
          <mxGeometry x="365" y="70" width="120" height="350" as="geometry" />
        </mxCell>
        <mxCell id="7uccOjwFSfvhtbrGH7Pw-6" value="Query&lt;br&gt;A&lt;br&gt;B&lt;br&gt;" style="whiteSpace=wrap;html=1;fontSize=20;fontFamily=Architects Daughter;rounded=0;sketch=1;hachureGap=4;jiggle=2;curveFitting=1;fontSource=https%3A%2F%2Ffonts.googleapis.com%2Fcss%3Ffamily%3DArchitects%2BDaughter;" vertex="1" parent="1">
          <mxGeometry x="565" y="215" width="120" height="135" as="geometry" />
        </mxCell>
        <mxCell id="7uccOjwFSfvhtbrGH7Pw-8" value="C&lt;br&gt;D" style="rounded=0;whiteSpace=wrap;html=1;sketch=1;hachureGap=4;jiggle=2;curveFitting=1;fontFamily=Architects Daughter;fontSource=https%3A%2F%2Ffonts.googleapis.com%2Fcss%3Ffamily%3DArchitects%2BDaughter;fontSize=20;" vertex="1" parent="1">
          <mxGeometry x="380" y="120" width="65" height="60" as="geometry" />
        </mxCell>
        <mxCell id="7uccOjwFSfvhtbrGH7Pw-9" value="A&lt;br&gt;B" style="rounded=0;whiteSpace=wrap;html=1;sketch=1;hachureGap=4;jiggle=2;curveFitting=1;fontFamily=Architects Daughter;fontSource=https%3A%2F%2Ffonts.googleapis.com%2Fcss%3Ffamily%3DArchitects%2BDaughter;fontSize=20;" vertex="1" parent="1">
          <mxGeometry x="375" y="360" width="70" height="60" as="geometry" />
        </mxCell>
        <mxCell id="7uccOjwFSfvhtbrGH7Pw-10" value="MS-A&lt;br&gt;TaskA" style="rounded=0;whiteSpace=wrap;html=1;sketch=1;hachureGap=4;jiggle=2;curveFitting=1;fontFamily=Architects Daughter;fontSource=https%3A%2F%2Ffonts.googleapis.com%2Fcss%3Ffamily%3DArchitects%2BDaughter;fontSize=20;" vertex="1" parent="1">
          <mxGeometry x="320" y="610" width="120" height="100" as="geometry" />
        </mxCell>
        <mxCell id="7uccOjwFSfvhtbrGH7Pw-11" value="MS-B&lt;br&gt;TASKB" style="rounded=0;whiteSpace=wrap;html=1;sketch=1;hachureGap=4;jiggle=2;curveFitting=1;fontFamily=Architects Daughter;fontSource=https%3A%2F%2Ffonts.googleapis.com%2Fcss%3Ffamily%3DArchitects%2BDaughter;fontSize=20;" vertex="1" parent="1">
          <mxGeometry x="320" y="760" width="120" height="100" as="geometry" />
        </mxCell>
        <mxCell id="7uccOjwFSfvhtbrGH7Pw-12" value="MS-C&lt;br&gt;TASKC" style="rounded=0;whiteSpace=wrap;html=1;sketch=1;hachureGap=4;jiggle=2;curveFitting=1;fontFamily=Architects Daughter;fontSource=https%3A%2F%2Ffonts.googleapis.com%2Fcss%3Ffamily%3DArchitects%2BDaughter;fontSize=20;" vertex="1" parent="1">
          <mxGeometry x="320" y="920" width="120" height="100" as="geometry" />
        </mxCell>
        <mxCell id="7uccOjwFSfvhtbrGH7Pw-14" style="edgeStyle=orthogonalEdgeStyle;rounded=0;sketch=1;hachureGap=4;jiggle=2;curveFitting=1;orthogonalLoop=1;jettySize=auto;html=1;exitX=1;exitY=0.5;exitDx=0;exitDy=0;entryX=0;entryY=0.5;entryDx=0;entryDy=0;fontFamily=Architects Daughter;fontSource=https%3A%2F%2Ffonts.googleapis.com%2Fcss%3Ffamily%3DArchitects%2BDaughter;fontSize=16;" edge="1" parent="1" source="7uccOjwFSfvhtbrGH7Pw-13" target="7uccOjwFSfvhtbrGH7Pw-10">
          <mxGeometry relative="1" as="geometry" />
        </mxCell>
        <mxCell id="7uccOjwFSfvhtbrGH7Pw-15" style="edgeStyle=orthogonalEdgeStyle;rounded=0;sketch=1;hachureGap=4;jiggle=2;curveFitting=1;orthogonalLoop=1;jettySize=auto;html=1;exitX=1;exitY=0.75;exitDx=0;exitDy=0;entryX=0;entryY=0.5;entryDx=0;entryDy=0;fontFamily=Architects Daughter;fontSource=https%3A%2F%2Ffonts.googleapis.com%2Fcss%3Ffamily%3DArchitects%2BDaughter;fontSize=16;" edge="1" parent="1" source="7uccOjwFSfvhtbrGH7Pw-13" target="7uccOjwFSfvhtbrGH7Pw-11">
          <mxGeometry relative="1" as="geometry" />
        </mxCell>
        <mxCell id="7uccOjwFSfvhtbrGH7Pw-13" value="CLIENT" style="rounded=0;whiteSpace=wrap;html=1;sketch=1;hachureGap=4;jiggle=2;curveFitting=1;fontFamily=Architects Daughter;fontSource=https%3A%2F%2Ffonts.googleapis.com%2Fcss%3Ffamily%3DArchitects%2BDaughter;fontSize=20;" vertex="1" parent="1">
          <mxGeometry y="740" width="120" height="110" as="geometry" />
        </mxCell>
        <mxCell id="7uccOjwFSfvhtbrGH7Pw-16" style="edgeStyle=orthogonalEdgeStyle;rounded=0;sketch=1;hachureGap=4;jiggle=2;curveFitting=1;orthogonalLoop=1;jettySize=auto;html=1;exitX=1;exitY=1;exitDx=0;exitDy=0;entryX=-0.007;entryY=0.617;entryDx=0;entryDy=0;entryPerimeter=0;fontFamily=Architects Daughter;fontSource=https%3A%2F%2Ffonts.googleapis.com%2Fcss%3Ffamily%3DArchitects%2BDaughter;fontSize=16;" edge="1" parent="1" source="7uccOjwFSfvhtbrGH7Pw-13" target="7uccOjwFSfvhtbrGH7Pw-12">
          <mxGeometry relative="1" as="geometry" />
        </mxCell>
        <mxCell id="7uccOjwFSfvhtbrGH7Pw-17" value="taskA&lt;br&gt;RollbackTaskA&lt;br&gt;CommitTaskA" style="text;html=1;align=center;verticalAlign=middle;resizable=0;points=[];autosize=1;strokeColor=none;fillColor=none;fontSize=20;fontFamily=Architects Daughter;" vertex="1" parent="1">
          <mxGeometry x="450" y="585" width="160" height="90" as="geometry" />
        </mxCell>
        <mxCell id="7uccOjwFSfvhtbrGH7Pw-18" value="taskB&lt;br&gt;RollbackTaskB&lt;br&gt;CommitTaskB" style="text;html=1;align=center;verticalAlign=middle;resizable=0;points=[];autosize=1;strokeColor=none;fillColor=none;fontSize=20;fontFamily=Architects Daughter;" vertex="1" parent="1">
          <mxGeometry x="480" y="750" width="160" height="90" as="geometry" />
        </mxCell>
        <mxCell id="7uccOjwFSfvhtbrGH7Pw-19" value="taskC&lt;br&gt;RollbackTaskC&lt;br&gt;CommitTaskC" style="text;html=1;align=center;verticalAlign=middle;resizable=0;points=[];autosize=1;strokeColor=none;fillColor=none;fontSize=20;fontFamily=Architects Daughter;" vertex="1" parent="1">
          <mxGeometry x="480" y="905" width="160" height="90" as="geometry" />
        </mxCell>
        <mxCell id="7uccOjwFSfvhtbrGH7Pw-20" value="A - 1" style="shape=cylinder3;whiteSpace=wrap;html=1;boundedLbl=1;backgroundOutline=1;size=15;sketch=1;hachureGap=4;jiggle=2;curveFitting=1;fontFamily=Architects Daughter;fontSource=https%3A%2F%2Ffonts.googleapis.com%2Fcss%3Ffamily%3DArchitects%2BDaughter;fontSize=20;" vertex="1" parent="1">
          <mxGeometry x="670" y="600" width="190" height="100" as="geometry" />
        </mxCell>
        <mxCell id="7uccOjwFSfvhtbrGH7Pw-21" value="B - 1" style="shape=cylinder3;whiteSpace=wrap;html=1;boundedLbl=1;backgroundOutline=1;size=15;sketch=1;hachureGap=4;jiggle=2;curveFitting=1;fontFamily=Architects Daughter;fontSource=https%3A%2F%2Ffonts.googleapis.com%2Fcss%3Ffamily%3DArchitects%2BDaughter;fontSize=20;" vertex="1" parent="1">
          <mxGeometry x="670" y="750" width="190" height="100" as="geometry" />
        </mxCell>
        <mxCell id="7uccOjwFSfvhtbrGH7Pw-22" value="C - 1" style="shape=cylinder3;whiteSpace=wrap;html=1;boundedLbl=1;backgroundOutline=1;size=15;sketch=1;hachureGap=4;jiggle=2;curveFitting=1;fontFamily=Architects Daughter;fontSource=https%3A%2F%2Ffonts.googleapis.com%2Fcss%3Ffamily%3DArchitects%2BDaughter;fontSize=20;" vertex="1" parent="1">
          <mxGeometry x="680" y="910" width="190" height="100" as="geometry" />
        </mxCell>
        <mxCell id="7uccOjwFSfvhtbrGH7Pw-23" value="Aggregate Data" style="rounded=0;whiteSpace=wrap;html=1;sketch=1;hachureGap=4;jiggle=2;curveFitting=1;fontFamily=Architects Daughter;fontSource=https%3A%2F%2Ffonts.googleapis.com%2Fcss%3Ffamily%3DArchitects%2BDaughter;fontSize=20;" vertex="1" parent="1">
          <mxGeometry x="670" y="440" width="240" height="120" as="geometry" />
        </mxCell>
        <mxCell id="7uccOjwFSfvhtbrGH7Pw-24" value="QUEUE" style="rounded=0;whiteSpace=wrap;html=1;sketch=1;hachureGap=4;jiggle=2;curveFitting=1;fontFamily=Architects Daughter;fontSource=https%3A%2F%2Ffonts.googleapis.com%2Fcss%3Ffamily%3DArchitects%2BDaughter;fontSize=20;" vertex="1" parent="1">
          <mxGeometry x="110" y="440" width="120" height="180" as="geometry" />
        </mxCell>
      </root>
    </mxGraphModel>
  </diagram>
</mxfile>
